<?xml version="1.0" encoding="utf-8"?>
<!-- Generator: Adobe Illustrator 26.0.2, SVG Export Plug-In . SVG Version: 6.00 Build 0)  -->
<svg version="1.1" id="Слой_1" xmlns="http://www.w3.org/2000/svg" xmlns:xlink="http://www.w3.org/1999/xlink" x="0px" y="0px"
	 viewBox="0 0 1000 500" style="enable-background:new 0 0 1000 500;" xml:space="preserve">
<style type="text/css">
	.st0{fill:#FFFFFF;}
	.st1{fill:#1E4295;}
	.st2{fill:#D52E1E;}
</style>
<path class="st0" d="M0.1,167.1c0-54.28,0.03-108.55-0.08-162.83C0.01,0.99,0.42,0,4.12,0c330.59,0.12,661.17,0.12,991.76,0
	c3.7,0,4.11,0.99,4.1,4.27c-0.11,54.28-0.08,108.55-0.08,162.83c-2.33,0.09-4.66,0.26-7,0.26c-328.6,0.01-657.21,0.01-985.81,0
	C4.76,167.35,2.43,167.19,0.1,167.1z"/>
<path class="st1" d="M0.1,167.1c2.33,0.09,4.66,0.26,7,0.26c328.6,0.01,657.21,0.01,985.81,0c2.33,0,4.66-0.17,7-0.26
	c0,55.66,0,111.33,0,166.99c-1.75-0.04-3.51-0.12-5.26-0.12c-329.76-0.01-659.52-0.01-989.29,0c-1.75,0-3.51,0.08-5.26,0.12
	C0.1,278.42,0.1,222.76,0.1,167.1z"/>
<path class="st2" d="M0.1,334.09c1.75-0.04,3.51-0.12,5.26-0.12c329.76-0.01,659.52-0.01,989.29,0c1.75,0,3.51,0.08,5.26,0.12
	c0,53.91-0.04,107.82,0.1,161.73c0.01,3.48-0.7,4.18-4.2,4.18c-330.54-0.1-661.07-0.1-991.61,0c-3.49,0-4.2-0.7-4.2-4.18
	C0.14,441.91,0.1,388,0.1,334.09z"/>
</svg>
