<?xml version="1.0" encoding="utf-8"?>
<!-- Generator: Adobe Illustrator 26.0.2, SVG Export Plug-In . SVG Version: 6.00 Build 0)  -->
<svg version="1.1" id="Слой_1" xmlns="http://www.w3.org/2000/svg" xmlns:xlink="http://www.w3.org/1999/xlink" x="0px" y="0px"
	 viewBox="0 0 1000 500" style="enable-background:new 0 0 1000 500;" xml:space="preserve">
<style type="text/css">
	.st0{fill:#3C3B6D;}
	.st1{fill:#B12234;}
	.st2{fill:#FEFEFE;}
	.st3{fill:#FDFDFD;}
</style>
<path class="st0" d="M0.09,268.76C0.09,179.97,0.11,91.19,0,2.4C0-0.54,0.76-1,3.66-1C135.78-0.92,267.9-0.93,400.02-0.93
	c1.77,1.26,1.87,3.11,1.88,4.96c0.01,11.24,0.32,22.49-0.18,33.72c0.39,12.67,0.4,25.33,0,38c0.38,12.92,0.4,25.83,0,38.75
	c0.39,12.66,0.4,25.31,0,37.97c0.38,12.92,0.4,25.83,0,38.75c0.38,12.93,0.4,25.86,0,38.78c0.48,11.24,0.18,22.48,0.19,33.72
	c0,1.58-0.31,3.12-0.94,4.59c-0.84,1.67-2.41,2.03-4.14,2.14c-2.22,0.15-4.44,0.14-6.66,0.14c-126.74,0-253.48,0.01-380.22-0.05
	C6.61,270.55,2.91,271.58,0.09,268.76z"/>
<path class="st1" d="M999.91,460.15c0,12.13-0.06,24.25,0.06,36.38c0.02,1.98-0.47,2.76-2.56,2.38c-0.4-0.07-0.83-0.01-1.25-0.01
	c-332.02,0-664.05,0-996.07,0c0-12.92,0-25.83,0-38.75c1.12-1.39,2.72-1.69,4.44-1.76c2.36-0.1,4.72-0.08,7.08-0.08
	c325.6,0,651.19,0,976.79,0c2.36,0,4.72-0.01,7.08,0.08C997.19,458.46,998.79,458.75,999.91,460.15z"/>
<path class="st1" d="M0.09,422.19c0-12.92,0-25.83,0-38.75c1.12-1.39,2.72-1.69,4.44-1.76c2.36-0.1,4.72-0.08,7.08-0.08
	c325.6,0,651.19,0,976.79,0c2.36,0,4.72-0.01,7.08,0.08c1.72,0.07,3.31,0.37,4.44,1.76c0,12.92,0,25.83,0,38.75
	c-1.12,1.39-2.72,1.69-4.44,1.76c-2.36,0.1-4.72,0.08-7.08,0.08c-325.59,0-651.18,0-976.78,0c-2.36,0-4.72,0.01-7.08-0.08
	C2.82,423.88,1.22,423.58,0.09,422.19z"/>
<path class="st1" d="M999.91,306.72c0,12.92,0,25.83,0,38.75c-1.12,1.39-2.72,1.69-4.44,1.76c-2.36,0.1-4.72,0.08-7.08,0.08
	c-325.59,0-651.19,0-976.78,0c-2.36,0-4.72,0.01-7.08-0.08c-1.72-0.07-3.32-0.37-4.45-1.76c0-12.92,0-25.83,0-38.75
	c1.12-1.39,2.72-1.69,4.44-1.76c2.36-0.1,4.72-0.08,7.08-0.08c325.6,0,651.19,0,976.79,0c2.36,0,4.72-0.01,7.08,0.08
	C997.19,305.03,998.79,305.33,999.91,306.72z"/>
<path class="st2" d="M999.91,306.72c-17.07-0.01-34.15-0.02-51.22-0.02c-314.4,0-628.79,0-943.19,0c-1.8,0-3.61,0.01-5.41,0.02
	c0-12.65,0-25.31,0-37.96c1.87-0.75,3.84-0.37,5.75-0.37c129.6-0.02,259.2-0.02,388.8-0.04c1.78,0,3.6,0.35,5.35-0.32
	c1.11-1.4,2.68-1.75,4.41-1.82c1.94-0.07,3.89-0.09,5.83-0.09c193.14,0,386.28,0,579.42,0c2.08,0,4.16,0.01,6.25,0.11
	c1.6,0.08,2.99,0.5,4.02,1.73C999.91,280.88,999.91,293.8,999.91,306.72z"/>
<path class="st2" d="M0.09,422.19c1.52-0.04,3.05-0.11,4.57-0.11c330.23,0,660.45,0,990.68,0c1.52,0,3.05,0.07,4.57,0.11
	c0,12.65,0,25.31,0,37.96c-1.66,0.08-3.31,0.24-4.97,0.24c-329.96,0.01-659.93,0.01-989.89,0c-1.66,0-3.31-0.16-4.97-0.24
	C0.09,447.49,0.09,434.84,0.09,422.19z"/>
<path class="st2" d="M0.09,345.47c1.51-0.11,3.02-0.32,4.53-0.32c330.26-0.01,660.51-0.01,990.77,0c1.51,0,3.02,0.21,4.53,0.32
	c0,12.65,0,25.31,0,37.96c-1.53,0.02-3.05,0.07-4.58,0.07c-330.22,0-660.45,0-990.67,0c-1.53,0-3.05-0.05-4.58-0.07
	C0.09,370.78,0.09,358.13,0.09,345.47z"/>
<path class="st1" d="M400.15,114.47c0-12.86,0-25.72,0-38.57c0.93-1.35,2.34-1.74,3.94-1.83c1.94-0.11,3.88-0.12,5.83-0.12
	c193.38-0.01,386.76,0,580.15,0c1.94,0,3.89,0.02,5.83,0.11c1.6,0.08,2.99,0.5,4.02,1.73c0,12.92,0,25.83,0,38.75
	c-1.12,1.39-2.72,1.69-4.44,1.76c-2.22,0.09-4.44,0.08-6.66,0.08c-192.54,0-385.08,0-577.62,0c-2.22,0-4.44,0.01-6.66-0.09
	C402.82,116.21,401.19,115.98,400.15,114.47z"/>
<path class="st1" d="M400.14,37.59c-0.04-12.84-0.08-25.68-0.12-38.52c198.71,0,397.43,0.01,596.14-0.07c3.12,0,3.89,0.66,3.83,3.63
	c-0.21,11.73-0.09,23.46-0.09,35.19c-1.03,1.23-2.42,1.66-4.02,1.73c-1.94,0.09-3.89,0.11-5.83,0.11c-193.27,0-386.54,0-579.81,0
	c-1.94,0-3.89-0.01-5.83-0.1C402.68,39.5,401.12,39.14,400.14,37.59z"/>
<path class="st1" d="M400.15,191.28c-0.01-12.82-0.01-25.65-0.02-38.47c0.9-1.62,2.47-1.97,4.21-2.05c2.22-0.11,4.44-0.1,6.66-0.1
	c192.74,0,385.48-0.01,578.22,0.05c3.59,0,7.58-1.18,10.69,1.79c0,12.92,0,25.83,0,38.75c-1.12,1.39-2.72,1.69-4.44,1.76
	c-1.94,0.08-3.89,0.08-5.83,0.08c-193.08,0-386.15,0-579.23,0c-2.08,0-4.16,0-6.24-0.11C402.59,192.91,401.15,192.58,400.15,191.28z
	"/>
<path class="st2" d="M400.15,191.28c198.11,0,396.23,0,594.34,0c1.8,0,3.61-0.01,5.41-0.02c0,12.92,0,25.83,0,38.75
	c-1.03,1.23-2.42,1.66-4.02,1.73c-1.8,0.08-3.61,0.11-5.41,0.11c-193.53,0.01-387.06,0.01-580.59,0c-1.94,0-3.89-0.01-5.83-0.12
	c-1.61-0.09-2.99-0.54-3.9-1.9C400.15,216.98,400.15,204.13,400.15,191.28z"/>
<path class="st2" d="M400.14,37.59c198.82-0.01,397.65-0.01,596.47-0.01c1.1,0,2.2,0.16,3.3,0.24c0,12.65,0,25.31,0,37.96
	c-1.11,0.04-2.22,0.11-3.32,0.11c-198.81,0-397.63,0-596.44,0C400.14,63.13,400.14,50.36,400.14,37.59z"/>
<path class="st1" d="M400.16,229.83c198.12,0,396.24,0,594.36,0.01c1.8,0,3.6,0.11,5.4,0.17c0,12.65,0,25.31,0,37.96
	c-1.52,0.06-3.04,0.17-4.56,0.17c-196.93,0.01-393.86,0.01-590.78,0c-1.52,0-3.05-0.07-4.57-0.11
	C400.04,255.3,400.1,242.56,400.16,229.83z"/>
<path class="st2" d="M999.91,152.5c-1.23,0.11-2.46,0.32-3.69,0.32c-198.42,0.01-396.83,0.01-595.25,0.01
	c-0.28,0-0.56-0.01-0.83-0.02c0-12.78,0.01-25.56,0.01-38.34c198.81,0,397.62,0,596.43,0c1.11,0,2.22,0.05,3.33,0.07
	C999.91,127.19,999.91,139.85,999.91,152.5z"/>
<path class="st3" d="M351.85,236.86c4.2-0.25,8.41,0.64,10.74-0.95c2.28-1.56,2.64-5.64,4.18-9.47c1.01,2.84,1.93,4.84,2.4,6.93
	c0.57,2.52,1.93,3.42,4.61,3.16c2.29-0.23,4.62-0.05,7.31,0.68c-1.92,1.34-3.74,2.88-5.8,3.99c-2.43,1.3-2.72,2.85-1.7,5.13
	c0.9,2.02,1.47,4.18,2.54,7.3c-2.87-1.95-5.03-3.21-6.92-4.77c-1.8-1.48-3.18-1.52-4.99,0c-1.85,1.55-4,2.77-7,4.8
	c1.05-3.06,1.56-5.27,2.55-7.28c1.27-2.57,0.45-4.06-1.97-5.39C355.91,239.95,354.25,238.55,351.85,236.86z"/>
<path class="st3" d="M309.19,252.75c-6.23-6.25-12.09-6.01-17.62,0.64c-0.86-1.37-0.18-2.04,0.05-2.75
	c2.39-7.52,2.39-7.52-4.35-12.31c-0.52-0.37-1.29-0.54-1.33-1.35c0.18-0.15,0.39-0.45,0.54-0.43c7.77,1.29,12.81-0.99,12.76-9.36
	c0.83,0.27,1.26,0.32,1.28,0.43c1.19,7.48,5.22,11.09,14.43,8.15c-2.07,3.17-4.43,4.28-6.5,5.54c-2.16,1.33-2.48,2.73-1.57,4.85
	C307.78,248.3,308.43,250.55,309.19,252.75z"/>
<path class="st3" d="M247.52,237.1c-2.66,2.05-6.71,3.68-7.57,6.27c-0.86,2.57,1.49,6.11,2.7,10.11c-2.67-1.81-4.82-3.06-6.71-4.6
	c-1.78-1.45-3.16-1.6-4.99-0.04c-1.84,1.56-4,2.78-7.02,4.82c1.04-3.06,1.55-5.25,2.53-7.24c1.24-2.54,0.54-4.06-1.92-5.4
	c-1.95-1.07-3.66-2.55-5.7-4.01c3.83-1.13,8.09,0.87,10.43-1.01c2.25-1.82,2.66-5.7,3.89-8.69c0.39,0.2,0.78,0.3,0.8,0.43
	C234.9,235.46,239.44,238.38,247.52,237.1z"/>
<path class="st3" d="M157.41,253.49c3.51-7.52,4.15-13.42-5.97-16.05c0.36-0.32,0.73-0.65,1.09-0.97c2.24,0,4.51-0.22,6.72,0.05
	c3.08,0.37,4.49-0.82,5.09-3.59c0.41-1.9,1.28-3.72,2.04-5.84c1.68,1.09,1.82,2.74,2.05,4.11c0.71,4.23,2.99,6.07,7.56,5.31
	c1.56-0.26,3.2-0.04,4.74-0.04c0.05,0.49,0.11,0.7,0.07,0.72c-6.86,3.63-10.3,8.29-4.13,15.87c-0.44-0.01-0.88-0.02-1.32-0.03
	c-1.51-1.02-3.21-1.86-4.5-3.09c-2.92-2.78-5.53-2.54-8.37,0.1C161.24,251.22,159.61,252.03,157.41,253.49z"/>
<path class="st3" d="M100.06,226.15c1.11,3.13,2.03,5.13,2.5,7.23c0.58,2.53,1.96,3.4,4.63,3.14c2.28-0.22,4.61-0.05,8.14-0.05
	c-2.71,1.95-4.38,3.46-6.33,4.49c-2.73,1.44-3.01,3.2-1.86,5.73c0.86,1.89,1.35,3.94,2.32,6.89c-2.82-1.92-4.99-3.18-6.88-4.74
	c-1.81-1.5-3.19-1.48-4.99,0.02c-1.86,1.54-4.01,2.76-6.98,4.77c1.04-3.04,1.63-5.22,2.53-7.27c0.98-2.24,0.87-3.84-1.63-5.15
	c-2.02-1.06-3.78-2.58-5.59-4.72c2.34,0,4.7-0.18,7.02,0.05c2.67,0.26,4.06-0.6,4.63-3.13C98.05,231.29,98.96,229.28,100.06,226.15z
	"/>
<path class="st3" d="M32.56,226.72c1.1,0.71,1.29,0.77,1.3,0.85c1.26,7.35,5.09,11.23,14.33,8.18c-1.91,3.2-4.3,4.24-6.33,5.52
	c-2.09,1.32-2.6,2.65-1.64,4.83c0.94,2.14,1.56,4.4,2.52,7.16c-3.55-2.16-6.51-5.34-9.49-5.36c-2.83-0.02-5.68,3.27-8.69,5.21
	c-0.17-2.13,0.64-3.88,1.46-5.42c1.89-3.54,0.85-5.77-2.64-7.53c-1.53-0.77-2.84-1.96-4.29-2.99c0.36-0.34,0.57-0.65,0.71-0.63
	C27.53,237.78,32.7,235.67,32.56,226.72z"/>
<path class="st3" d="M324.59,226.49c2.92-7.39,3.64-13.3-5.78-15.78c0.62-0.72,0.8-1.07,0.92-1.05c7.73,1.2,12.92-0.87,12.76-9.15
	c1.54-0.16,1.54,0.58,1.76,1.18c2.86,7.73,2.87,7.73,11.28,7.9c0.64,0.01,1.28,0.07,1.87,0.11c0,0.41,0.05,0.62-0.01,0.65
	c-6.86,3.63-10.4,8.26-4.31,15.35c-1.01,0.19-1.17,0.27-1.22,0.22C336.13,220.74,330.4,219,324.59,226.49z"/>
<path class="st3" d="M276,226.38c-3.55-2.21-6.41-5.4-9.27-5.4c-2.86,0.01-5.71,3.21-9.44,5.57c1.04-2.99,1.67-5.27,2.63-7.43
	c0.98-2.21,0.48-3.58-1.71-4.79c-2-1.11-3.78-2.59-5.58-4.75c2.33,0,4.68-0.18,6.99,0.05c2.7,0.27,4.03-0.66,4.6-3.16
	c0.48-2.1,1.39-4.11,2.51-7.31c1.14,3.32,2.02,5.47,2.59,7.68c0.55,2.15,1.69,3,4.07,2.79c2.42-0.21,4.88-0.05,7.7,0.69
	c-1.48,1.04-2.84,2.29-4.46,3.06c-3.72,1.76-4.31,4.16-2.46,7.55C274.97,222.4,275.26,224.12,276,226.38z"/>
<path class="st3" d="M200.03,199.27c1.09,3,2.01,4.88,2.43,6.85c0.6,2.86,2.18,3.83,5.16,3.5c2.13-0.23,4.31-0.05,6.53-0.05
	c-0.1,0.6-0.04,0.95-0.19,1.07c-2.5,2.15-6.92,3.14-7.45,6.24c-0.47,2.74,1.67,5.89,2.98,9.83c-2.64-1.82-4.63-2.92-6.27-4.38
	c-2.27-2.02-4.15-1.81-6.35,0.06c-1.62,1.39-3.54,2.48-5.34,3.71c-0.23-0.34-0.51-0.61-0.45-0.7c3.87-6.74,3.01-12.05-6.05-14.9
	c0.31-0.31,0.62-0.63,0.93-0.94c2.22,0,4.47-0.22,6.65,0.05c3.11,0.39,4.47-0.87,5.07-3.6
	C198.08,204.13,198.94,202.32,200.03,199.27z"/>
<path class="st3" d="M142.48,225.9c-6.16-6.13-12.02-6.44-17.86,1.34c-0.13-0.45-0.26-0.9-0.39-1.36c0.76-2.2,1.38-4.45,2.31-6.58
	c1.02-2.32,0.59-3.83-1.82-5.1c-2-1.05-3.73-2.55-5.64-3.89c0.44-0.38,0.61-0.65,0.8-0.67c3.29-0.33,7.41,1.24,9.66-0.68
	c2.14-1.82,2.39-5.63,3.48-8.57c0.41,0.14,0.83,0.19,0.85,0.31c1.2,7.43,5.14,11.15,13.88,8.34c-0.65,2.48-2.36,3.17-3.63,3.74
	c-4.64,2.09-5.05,5.12-2.96,9.11C141.81,223.12,142.05,224.56,142.48,225.9z"/>
<path class="st3" d="M51.81,209.75c9.46,1.94,13.83-1.4,14.25-9.55c0.79,0.35,1.2,0.43,1.22,0.55c1.09,7.57,5.28,10.94,13.97,8.3
	c-0.03,0.41-0.06,0.83-0.1,1.24c-2.02,1.41-3.93,2.98-6.08,4.18c-2.06,1.16-2.46,2.44-1.58,4.49c0.93,2.16,1.57,4.43,2.72,7.77
	c-2.3-1.57-3.95-2.39-5.16-3.59c-3.04-3.03-5.77-2.67-8.7,0.11c-1.22,1.16-2.8,1.98-4.86,2.95C61.7,219,61.33,213.29,51.81,209.75z"
	/>
<path class="st3" d="M375.43,200.1c-5.81-7.71-11.67-6.94-17.99-0.55c4.27-7.54,3.75-13.21-6.35-16.03
	c4.86-1.47,9.12,0.5,11.45-1.35c2.27-1.8,2.68-5.7,3.91-8.7c0.36,0.17,0.71,0.22,0.79,0.39c1.41,2.8,0.95,7.05,3.71,8.37
	c2.63,1.26,6.46,0.27,10.19,1.1c-2.03,1.41-3.96,2.97-6.11,4.2c-2,1.15-2.52,2.42-1.61,4.49c0.95,2.16,1.58,4.44,2.36,6.67
	C375.67,199.17,375.55,199.64,375.43,200.1z"/>
<path class="st3" d="M285.39,183.18c3.94-1.13,8.2,0.86,10.54-1.02c2.25-1.81,2.64-5.71,3.86-8.72c0.41,0.22,0.8,0.32,0.82,0.46
	c0.93,7.81,5.55,10.61,13.98,8.29c-0.05,0.37-0.1,0.75-0.14,1.12c-1.92,1.36-3.72,2.9-5.78,4.02c-2.4,1.3-2.77,2.83-1.74,5.13
	c0.9,2.03,1.49,4.19,2.57,7.33c-2.87-1.95-5.02-3.2-6.91-4.75c-1.78-1.46-3.16-1.59-5-0.04c-1.85,1.56-4,2.79-6.45,4.45
	c0.18-2.86,1.15-5.08,2.1-7.24c0.97-2.23,0.42-3.59-1.72-4.81C289.47,186.23,287.62,184.73,285.39,183.18z"/>
<path class="st3" d="M242.75,199.65c-6.47-5.46-12.22-7.91-18.3,1.03c0.13-3.98,1.07-6.12,2.03-8.13c1.24-2.61,0.42-4.08-1.98-5.41
	c-1.89-1.05-3.57-2.43-5.28-4.5c2.35,0,4.71-0.18,7.03,0.05c2.67,0.26,4.06-0.58,4.63-3.12c0.47-2.1,1.38-4.11,2.49-7.3
	c1.11,3.18,2.02,5.19,2.5,7.29c0.57,2.54,1.96,3.4,4.63,3.13c2.29-0.23,4.62-0.05,7.29,0.66c-1.82,1.27-3.52,2.75-5.48,3.77
	c-2.74,1.43-3.02,3.21-1.86,5.73C241.32,194.76,241.81,196.81,242.75,199.65z"/>
<path class="st3" d="M152.28,182.2c8.56,2.22,13.58-0.27,13.61-8.83c0.82,0.24,1.26,0.28,1.27,0.39c1.25,7.4,5.13,11.2,14.34,8.19
	c-1.89,3.2-4.31,4.22-6.34,5.5c-2.1,1.33-2.57,2.68-1.63,4.84c0.93,2.14,1.57,4.4,2.36,6.69c-0.46,0.02-0.6,0.07-0.69,0.03
	c-3.09-1.45-5.48-5.3-8.6-4.98c-3.02,0.31-5.72,3.34-9.3,5.65c1-2.9,1.62-5.15,2.55-7.27c1.02-2.33,0.57-3.84-1.81-5.12
	c-2-1.08-3.75-2.57-5.61-3.88C152.39,183,152.34,182.6,152.28,182.2z"/>
<path class="st3" d="M91.59,199.58c-0.83-1.38-0.15-2.06,0.07-2.77c2.35-7.49,2.35-7.49-4.39-12.31c-0.51-0.37-0.98-0.8-1.49-1.23
	c0.38-0.29,0.6-0.59,0.75-0.56c7.82,1.35,12.73-1.09,12.76-9.39c0.83,0.31,1.2,0.33,1.28,0.49c1.44,2.79,0.99,7.06,3.7,8.39
	c2.61,1.28,6.47,0.28,10.05,0.28c-0.41,2-2.04,2.4-3.16,3.18c-5.2,3.65-5.22,3.61-3.15,9.65c0.42,1.21,0.74,2.45,0.95,4.34
	C103.01,192.57,97.15,192.97,91.59,199.58z"/>
<path class="st3" d="M18.39,182.91c8.41,0.61,14.48-0.67,14.28-10.33c0.38,0.27,0.76,0.54,1.13,0.81c0.72,2.04,1.62,4.05,2.1,6.14
	c0.57,2.52,1.92,3.42,4.61,3.15c2.29-0.23,4.63-0.05,8.28-0.05c-2.9,2.04-4.7,3.58-6.77,4.7c-2.42,1.3-2.73,2.85-1.71,5.14
	c0.9,2.03,1.48,4.18,2.54,7.25c-2.84-1.91-5.01-3.15-6.9-4.7c-1.8-1.47-3.18-1.54-5-0.01c-1.85,1.55-4,2.79-7,4.83
	c1.04-3.07,1.55-5.28,2.54-7.28c1.27-2.57,0.49-4.08-1.94-5.41C22.66,186.12,20.98,184.72,18.39,182.91z"/>
<path class="st3" d="M142.15,173.19c-5.83-7.62-11.68-7.09-17.83-1.13c0.37-1.22,0.72-2.46,1.13-3.67c2.06-6.02,2.05-5.99-3.15-9.63
	c-1.06-0.74-2.43-1.23-2.99-2.52c0.25-0.17,0.43-0.4,0.63-0.42c3.28-0.32,7.4,1.27,9.65-0.69c2.12-1.84,2.36-5.63,3.43-8.59
	c0.47,0.2,0.82,0.24,0.9,0.41c1.41,2.8,0.98,7.05,3.69,8.38c2.6,1.28,6.45,0.28,10.19,1.13c-2.02,1.41-3.95,2.97-6.09,4.19
	c-2.02,1.16-2.49,2.43-1.59,4.49c0.94,2.16,1.58,4.44,2.35,6.66C142.38,172.26,142.27,172.72,142.15,173.19z"/>
<path class="st3" d="M75.95,172.6c-6.37-6.43-12.11-7.22-17.42,0.21c-0.55-0.83-0.83-1.1-0.77-1.19c3.83-6.74,3.06-12.08-6.07-14.91
	c0.31-0.31,0.62-0.63,0.93-0.94c2.22,0,4.48-0.22,6.66,0.05c3.1,0.39,4.46-0.85,5.08-3.59c0.45-1.96,1.36-3.82,2.41-6.64
	c1.04,2.87,1.97,4.75,2.38,6.73c0.6,2.86,2.17,3.83,5.15,3.5c2.13-0.24,4.32-0.05,6.55-0.05c-0.12,0.58-0.09,0.97-0.23,1.03
	C73.05,160.11,71.27,165.14,75.95,172.6z"/>
<path class="st3" d="M318.79,156.44c8.11,0.3,13.97-1.25,13.86-10.77c0.37,0.28,0.74,0.55,1.1,0.83c0.72,2.05,1.62,4.06,2.1,6.16
	c0.57,2.51,1.92,3.42,4.61,3.15c2.28-0.23,4.61-0.05,6.92-0.05c0.12,1.52-1.08,1.71-1.77,2.2c-6.25,4.48-6.26,4.46-3.97,11.38
	c0.28,0.85,0.5,1.72,1,3.44c-2.6-1.78-4.67-2.95-6.43-4.46c-2.03-1.74-3.68-1.68-5.69,0.01c-1.74,1.47-3.76,2.64-5.67,3.96
	c-0.24-0.31-0.54-0.56-0.49-0.64C328.13,164.94,327.56,159.54,318.79,156.44z"/>
<path class="st3" d="M209.2,172.08c-6.21-6.46-12.07-6.03-18.24-0.02c0.55-1.72,0.83-3.57,1.7-5.13c1.96-3.52,0.81-5.72-2.66-7.51
	c-1.49-0.77-3.11-1.64-4.06-3.16c0.26-0.19,0.48-0.48,0.64-0.45c7.86,1.4,12.62-1.23,12.72-9.43c0.83,0.34,1.24,0.41,1.26,0.53
	c1.11,7.55,5.25,11,13.98,8.29c-0.02,0.41-0.05,0.83-0.07,1.24c-2.02,1.41-3.94,2.96-6.07,4.19c-2,1.15-2.51,2.41-1.61,4.49
	C207.76,167.37,208.41,169.75,209.2,172.08z"/>
<path class="st3" d="M275.41,173.17c-5.8-7.69-11.65-6.95-18.03-0.5c4.86-7.69,3.21-13.03-5.38-16.32
	c8.06,0.22,14.21-0.96,13.92-10.08c0.93,0.48,1.32,0.57,1.34,0.7c1,7.68,5.39,10.78,13.96,8.3c-0.04,0.4-0.08,0.8-0.11,1.2
	c-1.92,1.34-3.73,2.86-5.78,3.97c-2.41,1.29-2.75,2.83-1.73,5.12c0.9,2.03,1.49,4.18,2.21,6.28
	C275.67,172.28,275.54,172.73,275.41,173.17z"/>
<path class="st3" d="M375.79,145.17c-6.15-6.46-12.02-6.03-18.09-0.02c0.92-3.23,3.21-6.86,2.35-9.59
	c-0.79-2.53-4.95-4.11-7.68-6.14c0.41-0.29,0.59-0.52,0.79-0.54c3.3-0.29,7.44,1.23,9.7-0.65c2.14-1.79,2.38-5.64,3.46-8.59
	c0.44,0.17,0.86,0.24,0.88,0.35c1.11,7.61,5.34,10.96,14.69,8.08c-2.13,2.85-4.02,3.9-5.8,4.9c-2.8,1.56-3.88,3.29-2.25,6.31
	C374.81,141.09,375.16,143.2,375.79,145.17z"/>
<path class="st3" d="M290.31,145.37c4.88-7.26,4.09-12.85-5.3-15.9c8.33,0.18,14.52-0.94,14.26-10.12c0.92,0.49,1.31,0.58,1.34,0.73
	c1.13,7.55,5.1,11.24,14.27,7.94c-0.13,0.51-0.26,1.02-0.38,1.53c-2.04,1.41-4,2.95-6.15,4.18c-2.04,1.17-2.44,2.48-1.55,4.53
	c0.94,2.16,1.58,4.44,2.71,7.71c-2.87-1.95-5.02-3.2-6.9-4.75c-1.78-1.47-3.16-1.59-5-0.05c-1.85,1.56-4.01,2.79-6.03,4.16
	C291.14,145.35,290.73,145.36,290.31,145.37z"/>
<path class="st3" d="M242.65,145.3c-6.47-5.13-12.23-7.15-17.64,0.66c-0.43-0.91-0.68-1.2-0.61-1.32c4-6.84,2.82-12.07-6.14-14.91
	c0.3-0.3,0.6-0.6,0.89-0.9c2.25,0,4.53-0.22,6.75,0.05c3.08,0.38,4.49-0.82,5.09-3.58c0.42-1.91,1.28-3.73,2.07-5.95
	c1.92,1.84,2.13,4.11,2.71,6.09c0.73,2.49,1.77,3.85,4.81,3.45c2.26-0.3,4.6-0.06,6.99-0.06c-0.14,0.59-0.12,0.98-0.26,1.04
	C239.58,133.14,238.03,138.25,242.65,145.3z"/>
<path class="st3" d="M167.49,118.84c-0.07,9.36,5.44,11.19,13.13,10.11c0.05-0.01,0.14,0.18,0.22,0.3c0,0.1,0.05,0.3-0.01,0.33
	c-7.07,3.57-10.27,8.31-4.49,15.44c-0.88,0.13-1.04,0.2-1.09,0.15c-5.79-5.17-11.55-6.85-17.01,0.87c-0.35-1.01-0.57-1.31-0.49-1.45
	c4.03-6.85,2.76-12.04-6.14-14.91c0.3-0.28,0.6-0.57,0.91-0.85c1.84,0,3.72-0.23,5.52,0.05c4.07,0.62,6.12-0.95,6.73-4.74
	c0.25-1.53,0.99-2.99,1.5-4.48C166.69,119.39,167.09,119.12,167.49,118.84z"/>
<path class="st3" d="M85.07,129.05c4.46-0.22,8.68,0.7,11.12-0.88c2.19-1.42,2.42-5.57,3.51-8.51c0.4,0.13,0.83,0.17,0.85,0.28
	c1.19,7.49,5.22,11.12,14.42,8.17c-1.99,3.22-4.43,4.21-6.48,5.5c-2.13,1.34-2.49,2.73-1.58,4.87c0.92,2.15,1.56,4.41,2.13,7.24
	c-6.03-6.68-11.9-6.98-17.75,0.76c-0.1-0.44-0.21-0.88-0.31-1.31c0.55-1.72,0.83-3.57,1.7-5.13c1.96-3.53,0.84-5.77-2.66-7.53
	C88.48,131.73,87.17,130.54,85.07,129.05z"/>
<path class="st3" d="M33.61,119.72c0.1,0.08,0.27,0.14,0.29,0.23c1.18,7.49,5.2,11.12,14.39,8.17c-1.98,3.22-4.42,4.21-6.47,5.49
	c-2.12,1.34-2.5,2.73-1.59,4.87c0.92,2.15,1.56,4.41,2.13,7.28c-6.03-6.9-11.9-6.78-18.06-0.59c0.63-1.97,0.99-4.07,1.94-5.89
	c1.55-2.97,0.73-4.81-2.21-6.32c-1.78-0.91-3.31-2.25-5.01-3.43c0.43-0.35,0.64-0.66,0.79-0.63c7.8,1.31,12.83-0.98,12.75-9.98
	C32.93,119.19,33.27,119.45,33.61,119.72z"/>
<path class="st3" d="M342.09,119.37c-5.82-7.77-11.68-6.92-18.05-0.51c4.83-7.7,3.23-13.05-5.77-16.22
	c4.37-1.31,8.64,0.69,10.96-1.19c2.26-1.82,2.66-5.72,3.88-8.72c0.38,0.18,0.72,0.23,0.8,0.4c1.4,2.81,0.97,7.05,3.7,8.38
	c2.61,1.27,6.46,0.28,10.18,1.1c-1.92,1.34-3.74,2.85-5.79,3.96c-2.39,1.29-2.77,2.83-1.75,5.13c0.9,2.03,1.49,4.19,2.22,6.29
	C342.34,118.46,342.21,118.92,342.09,119.37z"/>
<path class="st3" d="M251.68,102.17c4.5-0.23,8.72,0.69,11.13-0.89c2.19-1.43,2.41-5.57,3.51-8.53c0.38,0.12,0.82,0.16,0.84,0.27
	c1.27,7.35,5.07,11.26,14.11,8.27c-1.02,2.59-2.72,3.38-4.12,4.04c-4.21,1.97-4.87,4.71-2.84,8.5c0.73,1.35,1.02,2.91,1.34,5
	c-6.01-6.8-11.88-6.86-18.08-0.56c0.78-2.32,1.44-4.7,2.38-6.96c0.86-2.04,0.52-3.36-1.55-4.53
	C256.3,105.61,254.41,104.07,251.68,102.17z"/>
<path class="st3" d="M184.96,102.64c4.38-1.31,8.64,0.69,10.97-1.18c2.26-1.82,2.66-5.72,3.88-8.72c0.38,0.18,0.72,0.24,0.8,0.41
	c1.39,2.81,0.97,7.05,3.7,8.38c2.61,1.27,6.46,0.27,10.18,1.1c-1.92,1.34-3.74,2.85-5.8,3.96c-2.4,1.29-2.77,2.84-1.75,5.13
	c0.9,2.03,1.49,4.19,2.53,7.22c-2.67-1.77-4.73-2.91-6.49-4.38c-1.99-1.66-3.62-1.87-5.68-0.1c-1.8,1.54-3.91,2.73-6.58,4.09
	C195.56,111.16,193.95,105.81,184.96,102.64z"/>
<path class="st3" d="M148.01,101.37c-0.52,1.23-0.54,1.4-0.63,1.44c-7.26,3.41-9.72,8.25-5.26,15.61c-1.14-0.73-2.31-1.44-3.42-2.21
	c-5.27-3.63-5.27-3.63-10.69,0.11c-1.08,0.75-2.2,1.45-3.78,2.5c1.09-3.8,3.38-7.41,2.53-10.15c-0.78-2.53-4.93-4.12-7.65-6.17
	c0.43-0.28,0.62-0.5,0.83-0.52c3.29-0.31,7.41,1.27,9.66-0.68c2.12-1.84,2.36-5.64,3.43-8.6c0.47,0.21,0.87,0.28,0.89,0.41
	C135.01,100.72,139.24,104.05,148.01,101.37z"/>
<path class="st3" d="M66.32,92.39c2.22,7.53,5.76,12.16,14.49,9.24c0,0.83,0.05,1.02-0.01,1.05c-7.04,3.59-10.33,8.32-4.25,15.51
	c-1.09,0.08-1.25,0.13-1.31,0.08c-5.78-5.21-11.53-6.86-16.96,0.83c-0.37-0.96-0.6-1.26-0.52-1.39c4.03-6.83,2.72-12.01-5.58-14.78
	c0.6-0.6,0.79-0.94,0.92-0.92C60.88,103.26,66.02,101.11,66.32,92.39z"/>
<path class="st3" d="M375.94,91.65c-3.75-1.53-6.11-5.6-9.4-5.27c-3.01,0.3-5.72,3.36-9.2,5.62c1-2.96,1.66-5.34,2.62-7.6
	c0.87-2.05,0.46-3.36-1.56-4.53c-2.11-1.21-4.02-2.73-7.1-4.85c3.68,0,6.22-0.17,8.73,0.05c2.37,0.2,3.51-0.6,4.06-2.77
	c0.56-2.22,1.44-4.37,3.04-6.55c0.74,2.18,1.62,4.32,2.18,6.54c0.55,2.15,1.67,2.99,4.05,2.78c2.45-0.22,4.94-0.05,8.78-0.05
	c-2.88,2-4.7,3.49-6.74,4.61c-2.32,1.27-2.9,2.74-1.85,5.1C374.49,86.86,375.08,89.13,375.94,91.65z"/>
<path class="st3" d="M315.18,75.91c-9.37,2.93-10.43,8.44-5.23,16c-4.46-1.79-6.78-5.89-10.12-5.54c-3,0.32-5.68,3.37-9.16,5.65
	c0.92-2.77,1.41-4.95,2.36-6.93c1.27-2.65,0.58-4.31-2.02-5.71c-1.89-1.02-3.54-2.42-6.31-4.37c3.5,0,5.92-0.19,8.29,0.05
	c2.73,0.28,3.99-0.72,4.56-3.2c0.48-2.09,1.38-4.09,2.46-7.16c1.09,2.99,2.02,4.87,2.43,6.85c0.59,2.85,2.16,3.83,5.14,3.5
	c2.16-0.24,4.37-0.05,6.56-0.05C314.48,75.31,314.83,75.61,315.18,75.91z"/>
<path class="st3" d="M242.72,91.86c-3.64-2.26-6.52-5.44-9.39-5.42c-2.87,0.02-5.71,3.23-8.59,5.05c-0.14-0.25-0.4-0.52-0.34-0.63
	c3.83-6.77,3.07-12.12-6.71-15.09c3.89-1.11,6.44-0.86,8.88-0.69c2.59,0.17,3.69-0.82,4.27-3.04c0.56-2.12,1.41-4.16,2.14-6.26
	c0.49,0.2,0.84,0.24,0.93,0.4c1.42,2.8,0.99,7.05,3.68,8.38c2.6,1.29,6.47,0.28,10.43,0.28c-1.79,2.55-4.13,3.64-6.16,4.92
	c-2.08,1.31-2.63,2.63-1.65,4.83C241.14,86.74,241.75,89.02,242.72,91.86z"/>
<path class="st3" d="M176.06,91.86c-3.64-2.26-6.52-5.44-9.39-5.42c-2.87,0.02-5.71,3.23-8.59,5.05c-0.14-0.25-0.38-0.47-0.35-0.63
	c0.7-3.17,3.66-6.46,2.36-9.23c-1.18-2.53-4.95-3.96-7.97-6.16c2.79-0.8,5.34-0.54,7.78-0.38c2.59,0.17,3.69-0.82,4.27-3.04
	c0.56-2.12,1.41-4.16,2.14-6.26c0.49,0.2,0.84,0.24,0.93,0.4c1.42,2.8,0.99,7.05,3.68,8.38c2.6,1.29,6.47,0.28,10.43,0.28
	c-1.79,2.55-4.13,3.64-6.16,4.92c-2.08,1.31-2.63,2.63-1.65,4.83C174.49,86.74,175.09,89.02,176.06,91.86z"/>
<path class="st3" d="M109.21,91.34c-6.21-6.15-12.08-6.46-17.93,1.36c-0.12-0.44-0.24-0.89-0.36-1.33c0.79-2.33,1.45-4.71,2.4-6.97
	c0.87-2.05,0.46-3.36-1.56-4.53c-2.11-1.21-4.02-2.73-7.1-4.85c3.68,0,6.22-0.17,8.73,0.05c2.37,0.2,3.51-0.6,4.06-2.77
	c0.56-2.22,1.44-4.37,3.04-6.55c0.74,2.18,1.62,4.32,2.18,6.54c0.55,2.15,1.67,2.99,4.05,2.78c2.45-0.22,4.94-0.05,8.78-0.05
	c-2.88,2-4.7,3.49-6.74,4.61c-2.32,1.27-2.9,2.74-1.85,5.1C107.87,86.86,108.46,89.13,109.21,91.34z"/>
<path class="st3" d="M18.41,75.2c8.41,0.74,14.43-0.57,14.26-9.68c0.91,0.5,1.24,0.56,1.32,0.74c1.38,2.8,0.94,7.04,3.69,8.36
	c2.64,1.26,6.48,0.27,10.22,0.27c-0.78,1.82-2.25,2.35-3.37,3.14c-5.22,3.65-5.23,3.62-3.17,9.62c0.42,1.21,0.76,2.45,1.17,3.77
	c-0.4-0.03-0.53-0.01-0.63-0.06c-3.09-1.46-5.46-5.31-8.59-4.98c-3.02,0.32-5.73,3.34-8.61,5.19c-0.12-0.34-0.3-0.59-0.26-0.79
	c0.69-3.16,3.68-6.43,2.31-9.22C25.51,79.04,21.77,77.62,18.41,75.2z"/>
<path class="st3" d="M19.4,21.38c3.46-0.16,7.7,0.78,10.12-0.8c2.19-1.42,2.41-5.59,3.48-8.5c1.13-0.1,1.12,0.66,1.33,1.25
	c2.86,7.71,2.86,7.71,11.69,7.89c0.52,0.01,1.04,0.08,2.46,0.2c-2.54,1.78-4.36,3.33-6.44,4.43c-2.45,1.3-2.72,2.86-1.73,5.14
	c0.89,2.04,1.48,4.19,2.23,6.36c-0.38,0.07-0.69,0.21-0.76,0.13c-5.77-5.65-11.5-6.26-17.73,0.78c5.18-7.83,2.71-12.79-4.69-16.28
	C19.27,21.95,19.38,21.56,19.4,21.38z"/>
<path class="st3" d="M342.79,65.23c-2.17-1.49-3.76-2.29-4.94-3.45c-3.15-3.11-6.02-2.68-9.06,0.12c-1.17,1.08-2.66,1.85-4.03,2.77
	c-0.18-0.32-0.45-0.59-0.39-0.7c3.78-6.74,3.1-12.11-6.09-14.93c2.14-1.27,3.62-0.88,4.99-0.89c6.42-0.05,6.41-0.03,8.5-6.04
	c0.38-1.08,0.83-2.14,1.24-3.21c0.44,0.19,0.79,0.23,0.87,0.39c1.4,2.8,1,7.05,3.66,8.38c2.59,1.3,6.46,0.28,10.24,1.11
	c-1.99,1.39-3.87,2.94-5.99,4.12c-2.2,1.24-2.55,2.66-1.62,4.82C341.12,59.87,341.74,62.14,342.79,65.23z"/>
<path class="st3" d="M275.28,65.29c-5.75-6.92-11.49-7.23-16.87-0.24c-0.47-0.7-0.74-0.96-0.69-1.05
	c3.87-6.83,2.95-12.22-5.57-14.99c0.55-0.62,0.64-0.79,0.7-0.78c7.72,1.13,13.14-0.8,13.04-9.49c0.88,0.34,1.29,0.4,1.31,0.53
	c1.33,7.24,4.79,11.59,14.05,8.29c-1.83,2.88-4.04,4.09-6.09,5.33c-2.11,1.28-2.61,2.63-1.64,4.82c0.94,2.14,1.55,4.41,2.3,6.63
	C275.65,64.65,275.46,64.97,275.28,65.29z"/>
<path class="st3" d="M214.13,48.13c-6.65,4.28-10.49,8.81-4.44,16.07c-0.91,0.15-1.22,0.28-1.31,0.2
	c-5.76-5.66-11.48-6.17-17.43,0.02c0.55-1.72,0.85-3.57,1.71-5.14c1.92-3.51,0.83-5.75-2.66-7.5c-1.53-0.77-2.81-1.99-4.24-3.03
	c0.35-0.28,0.56-0.58,0.71-0.56c7.78,1.28,12.85-0.94,12.72-9.93c2.15,1.58,2.38,3.2,2.6,4.59c0.72,4.49,3.28,6.14,7.92,5.32
	C211.13,47.91,212.65,48.13,214.13,48.13z"/>
<path class="st3" d="M132.97,38.6c2.3,7.4,5.64,12.29,15.2,8.88c-0.13,0.43-0.25,0.86-0.38,1.28c-1.81,1.28-3.5,2.78-5.46,3.8
	c-2.75,1.43-3,3.21-1.85,5.73c0.86,1.9,1.35,3.95,2.03,5.99c-0.38,0.06-0.69,0.2-0.77,0.12c-5.76-5.65-11.48-6.18-17.44,0.02
	c0.55-1.72,0.85-3.57,1.71-5.14c1.92-3.5,0.84-5.75-2.65-7.5c-1.53-0.77-2.82-1.99-4.25-3.03c0.34-0.28,0.55-0.59,0.7-0.56
	C127.57,49.47,132.63,47.24,132.97,38.6z"/>
<path class="st3" d="M52.7,48.35c3.41-0.17,7.66,0.77,10.01-0.81c2.26-1.53,2.57-5.66,3.71-8.6c0.43,0.07,0.66,0.08,0.67,0.12
	c1.26,7.49,5.19,11.41,14.27,8.47c-0.06,0.42-0.11,0.83-0.17,1.25c-2.02,1.41-3.96,2.96-6.1,4.2c-1.97,1.15-2.53,2.38-1.62,4.48
	c0.98,2.26,1.62,4.65,2.21,7.59c-6.01-6.86-11.87-6.85-17.52,0.2c-0.27-0.91-0.48-1.22-0.39-1.37
	C61.78,57.04,60.52,51.85,52.7,48.35z"/>
<path class="st3" d="M366.55,11.32c2.13,3.59,1.55,8.02,4.37,9.47c2.57,1.32,6.48,0.28,10.25,1.08c-1.99,1.38-3.89,2.92-6.01,4.1
	c-2.2,1.23-2.6,2.64-1.65,4.82c0.94,2.15,1.55,4.42,2.5,7.21c-1.1-0.62-1.66-0.9-2.18-1.23c-7.15-4.65-7.15-4.65-14.37,0.12
	c-0.45,0.3-0.95,0.53-1.44,0.81c-0.13-0.27-0.37-0.54-0.3-0.67c3.85-6.8,3.01-12.12-6.09-14.89c0.27-0.31,0.54-0.62,0.8-0.93
	c2.09,0,4.2-0.2,6.25,0.05c3.28,0.4,5.16-0.53,5.7-3.84C364.7,15.56,365.65,13.79,366.55,11.32z"/>
<path class="st3" d="M309.41,37.72c-6.55-5.16-12.3-7.33-17.68,0.56c-0.48-0.84-0.71-1.06-0.67-1.22c0.7-3.18,3.65-6.48,2.36-9.25
	c-1.17-2.53-4.96-3.96-8.56-6.59c3.29,0,5.67-0.24,7.97,0.06c3.01,0.39,4.18-0.88,4.78-3.43c0.47-2,1.34-3.91,2.04-5.87
	c0.49,0.2,0.9,0.28,0.92,0.4c0.95,7.89,5.63,10.82,13.66,8.61c0,0.77,0.04,0.96-0.01,0.99C307.08,25.49,303.88,30.21,309.41,37.72z"
	/>
<path class="st3" d="M218.6,21.35c9,1.74,13.85-0.97,13.95-9.24c1.56-0.11,1.53,0.66,1.74,1.25c2.86,7.74,2.86,7.74,11.29,7.86
	c0.65,0.01,1.31,0.07,2.95,0.15c-2.54,1.77-4.24,3.25-6.22,4.26c-2.79,1.42-3.01,3.22-1.86,5.74c0.86,1.9,1.36,3.95,2.04,6.01
	c-0.39,0.05-0.7,0.17-0.78,0.09c-5.76-5.71-11.48-6.16-17.66,0.75C228.84,30.41,227.36,25.03,218.6,21.35z"/>
<path class="st3" d="M175.98,37.82c-3.85-1.55-6.12-5.68-9.54-5.26c-2.99,0.37-5.62,3.36-9,5.2c4.22-7.19,3.93-12.93-5.72-15.53
	c1.05-0.71,1.27-0.99,1.44-0.96c7.83,1.35,12.79-1.02,12.73-9.37c0.82,0.23,1.2,0.23,1.29,0.38c1.61,2.83,0.97,7.22,3.99,8.61
	c2.65,1.22,6.43,0.26,11.04,0.26c-2.86,1.99-4.57,3.48-6.55,4.49c-2.79,1.42-3,3.22-1.86,5.75
	C174.66,33.29,175.15,35.34,175.98,37.82z"/>
<path class="st3" d="M100.92,11.37c0.03,9.16,5.07,11.62,13.62,9.39c0.01,0.37,0.01,0.74,0.02,1.11c-2,1.38-3.9,2.92-6.02,4.1
	c-2.21,1.23-2.59,2.65-1.65,4.83c0.94,2.15,1.55,4.42,2.5,7.21c-1.11-0.62-1.67-0.9-2.19-1.24c-7.14-4.65-7.14-4.65-14.38,0.13
	c-0.45,0.3-0.95,0.53-1.44,0.81c-0.12-0.27-0.33-0.5-0.29-0.68c0.7-3.17,3.66-6.47,2.34-9.25c-1.2-2.53-4.98-3.95-8.59-6.56
	c3.18,0,5.43-0.18,7.64,0.04c2.93,0.3,4.59-0.56,5.17-3.46c0.4-1.99,1.34-3.89,2.04-5.83C100.1,11.77,100.51,11.57,100.92,11.37z"/>
</svg>
