<?xml version="1.0" encoding="utf-8"?>
<!-- Generator: Adobe Illustrator 26.0.2, SVG Export Plug-In . SVG Version: 6.00 Build 0)  -->
<svg version="1.1" id="Слой_1" xmlns="http://www.w3.org/2000/svg" xmlns:xlink="http://www.w3.org/1999/xlink" x="0px" y="0px"
	 viewBox="0 0 1000 500" style="enable-background:new 0 0 1000 500;" xml:space="preserve">
<style type="text/css">
	.st0{fill:#1EB43A;}
	.st1{fill:#FEFEFE;}
	.st2{fill:#0098B4;}
	.st3{fill:#CD1226;}
	.st4{fill:#FBFDFD;}
	.st5{fill:#FCFDFD;}
</style>
<path class="st0" d="M999.92,339.82c0,52.33-0.03,104.66,0.08,156.99c0.01,2.67-0.53,3.2-3.2,3.2c-331.2-0.08-662.4-0.08-993.6,0
	c-2.67,0-3.21-0.52-3.2-3.2c0.1-52.33,0.08-104.66,0.08-156.99c1.14-1.04,2.56-1.19,4.01-1.24c1.56-0.06,3.12-0.04,4.69-0.04
	c327.49,0,654.98,0,982.46,0.03C994.15,338.57,997.26,337.8,999.92,339.82z"/>
<path class="st1" d="M999.92,170.34c0,53.11,0,106.22,0,159.33c-1.14,1.04-2.56,1.19-4.01,1.24c-1.56,0.06-3.12,0.04-4.69,0.04
	c-327.49,0-654.98,0-982.47-0.03c-2.92,0-6.03,0.76-8.69-1.25c0-53.11,0-106.22,0-159.33c1.14-1.04,2.56-1.19,4.01-1.24
	c1.56-0.06,3.12-0.04,4.69-0.04c327.49,0,654.98,0,982.46,0.03C994.15,169.09,997.26,168.32,999.92,170.34z"/>
<path class="st2" d="M0.08,160.18C0.08,107.85,0.1,55.53,0,3.2C-0.01,0.52,0.53,0,3.2,0c331.2,0.08,662.4,0.08,993.6,0
	c2.67,0,3.21,0.52,3.2,3.2c-0.1,52.33-0.08,104.66-0.08,156.99c-1.14,1.04-2.56,1.19-4.01,1.24c-1.56,0.06-3.12,0.04-4.69,0.04
	c-327.49,0-654.98,0-982.47-0.03C5.84,161.43,2.74,162.19,0.08,160.18z"/>
<path class="st3" d="M0.08,160.18c1.43-0.03,2.86-0.09,4.29-0.09c330.42,0,660.85,0,991.27,0c1.43,0,2.86,0.06,4.29,0.09
	c0,3.38,0,6.77,0,10.15c-1.42-0.08-2.84-0.24-4.26-0.24c-330.44-0.01-660.88-0.01-991.32,0c-1.42,0-2.84,0.16-4.26,0.24
	C0.08,166.95,0.08,163.57,0.08,160.18z"/>
<path class="st3" d="M0.08,329.66c1.42,0.08,2.84,0.24,4.26,0.24c330.44,0.01,660.88,0.01,991.32,0c1.42,0,2.84-0.16,4.26-0.24
	c0,3.38,0,6.77,0,10.15c-1.56,0.03-3.12,0.09-4.68,0.09c-330.16,0-660.32,0-990.49,0c-1.56,0-3.12-0.06-4.68-0.09
	C0.08,336.43,0.08,333.05,0.08,329.66z"/>
<path class="st1" d="M148.51,20.7c-30.08,8.83-48.24,27.96-48.13,59.7c0.11,30.94,17.89,49.82,47.13,58.74
	c-18.15,3.52-41.18-4.65-54.76-22.2c-14.87-19.22-16.89-45.25-5-66.34C99.84,29.17,122.87,17.76,148.51,20.7z"/>
<path class="st4" d="M282.89,28.42c-6.39,3.04-7.28,7.29-3.97,13.2c-4.65-5.36-8.97-5.52-13.68-0.02
	c3.11-5.92,2.28-10.22-4.17-13.17c6.86,1.49,10.2-1.26,11.03-7.99C272.79,27.27,276.04,29.87,282.89,28.42z"/>
<path class="st4" d="M320.11,20.41c0.42,7.42,4.49,9.01,10.93,8.05c-6.19,2.85-7.68,6.94-4.27,12.96c-4.64-5.01-8.83-5.22-13.37,0.1
	c2.58-5.7,2.64-10.23-4.34-12.89C315.75,29.54,319.53,27.33,320.11,20.41z"/>
<path class="st4" d="M374.84,41.35c-4.32-4.25-8.39-5.75-12.75,0.04c-0.86-3.36,2.23-5.76,0.93-7.94c-1.16-1.94-3.6-3.11-6.62-5.54
	c6.97,1.48,11.03-0.06,11.51-7.31c1.21,6.42,4.01,9.76,11.13,7.53C373.21,31.41,371.19,35.32,374.84,41.35z"/>
<path class="st5" d="M176.14,116.33c0.64,6.79,3.88,9.45,10.73,8.08c-5.94,3.07-7.67,7.05-4.39,12.74c-2.06-1.4-3.99-3.57-6.23-3.97
	c-2.3-0.4-3.84,2.71-7.06,3.89c3.08-5.71,2.28-9.91-4.19-12.47C171.89,125.86,175.31,123.03,176.14,116.33z"/>
<path class="st5" d="M330.56,124.78c-1.96,1.61-4.86,2.88-5.6,4.92c-0.68,1.87,0.99,4.59,1.79,7.56c-2.52-1.65-4.62-4.1-6.63-4.03
	c-2.21,0.08-4.33,2.48-6.89,4.13c0.8-2.76,2.33-5.3,1.99-7.57c-0.36-2.42-3.98-2.88-5.72-5.28c2.73-0.21,5.8,0.41,7.51-0.83
	c1.66-1.2,1.93-4.33,3.19-7.6C321.03,122.77,323.88,126.14,330.56,124.78z"/>
<path class="st5" d="M224.32,115.75c0.62,7.15,3.56,10.3,10.58,8.49c-5.08,3.11-8.06,6.57-4.12,12.74
	c-4.92-4.68-9.21-4.66-13.56,0.63c3.05-5.82,2.65-10.2-4.43-12.72c3.4-1.19,6.55,0.52,8.27-1.15
	C222.64,122.21,222.95,119.35,224.32,115.75z"/>
<path class="st5" d="M357.52,124.84c5.88,0.59,9.85-1.09,10.4-8.22c1.17,6.4,3.99,9.69,11.06,7.54c-5.69,3.39-8.31,7.13-4.46,12.99
	c-2.08-1.4-4.02-3.56-6.29-3.98c-2.32-0.43-3.84,2.74-6.38,3.61c-0.54-2.78,2.45-5.2,1.17-7.4
	C361.9,127.46,359.41,126.33,357.52,124.84z"/>
<path class="st5" d="M282.94,124.25c-6.58,3.22-7.23,7.53-4.03,13.33c-4.4-4.72-8.58-5.95-13.43-0.36
	c3.13-6.01,1.54-9.96-4.35-12.71c6.15,0.77,10.39-0.51,10.72-7.94C273.26,122.57,275.56,126.67,282.94,124.25z"/>
<path class="st5" d="M367.81,68.82c2.85,7.24,2.85,7.24,11.65,7.88c-6.42,2.76-8.25,6.61-4.57,12.58c-4.7-4.9-9.02-4.92-13.55,0.13
	c2.48-5.41,2.82-9.83-3.9-12.6C364.09,77.89,367.25,75.09,367.81,68.82z"/>
<path class="st5" d="M282.84,76.55c-6.72,2.81-6.81,7.19-4.07,12.81c-4.55-4.8-8.78-5.27-13.36,0.07c2.5-5.51,2.71-9.91-4.06-12.57
	c6.54,0.91,10-1.55,10.57-8.23C273.18,74.71,275.64,78.45,282.84,76.55z"/>
<path class="st5" d="M213.28,76.64c6.88,1.35,9.95-1.57,10.66-8.09c1.13,5.99,3.62,9.77,10.34,8.43c-1.82,1.52-4.35,2.7-5.28,4.64
	c-1.02,2.12,1.44,4.49,1.54,7.93c-4.49-5.24-8.78-4.98-13.31-0.17C220.48,83.62,219.7,79.46,213.28,76.64z"/>
<path class="st5" d="M326.8,89.19c-3.03-1.45-4.67-4.33-6.99-3.96c-2.17,0.34-4.06,2.5-6.52,4.16c0.78-2.96,2.36-5.66,1.78-7.77
	c-0.52-1.89-3.43-3.12-6.42-5.57c7.45,1.79,10.81-0.8,11.22-7.68c1.16,6.21,3.68,9.94,11.03,7.67c-2.17,2.92-5.71,3.46-6.09,5.84
	C324.47,84.03,325.98,86.48,326.8,89.19z"/>
</svg>
