<svg id="Слой_1" data-name="Слой 1" xmlns="http://www.w3.org/2000/svg" viewBox="0 0 1000 313.43"><defs><style>.cls-1{fill:#254283;}.cls-2{fill:#03a1e2;}</style></defs><path class="cls-1" d="M1000,155.08c0,13.55,0,27.1,0,40.65a4.9,4.9,0,0,1-2.08,4.3A141.1,141.1,0,0,1,934,229.2a129.51,129.51,0,0,1-57.09-2.09c-23.34-6.26-39.75-20.64-49.94-42.42a144,144,0,0,1-11.15-35.26,135.46,135.46,0,0,1-1.71-28.05,146,146,0,0,1,2.47-24.15C820,79.8,826.22,63.61,838,50c10.68-12.33,24.28-20.36,39.58-25.57,18.54-6.32,37.51-8.08,56.77-4.13,19.62,4,36.46,13,49.21,28.84A64.14,64.14,0,0,1,996,74.82c.61,2.55.59,2.59-2,3.12q-23.65,4.83-47.32,9.63c-3,.6-3.05.58-4.21-2.29-3.46-8.62-9.18-15.06-17.91-18.56-10.73-4.3-21-2.77-30.63,3.08-11.74,7.13-18.81,17.59-21.65,31.07a126.54,126.54,0,0,0-2.92,33c.63,11.72,2.9,23.05,8.89,33.36,5.09,8.74,12.19,15,22.09,17.77,7.49,2.07,15,1.63,22.49-.08,9-2.05,17.33-5.89,25.39-10.33a3.49,3.49,0,0,0,2-3.58c-.09-4.8,0-9.6-.06-14.4,0-2.58-.06-2.62-2.77-2.6q-15.36.12-30.72.28c-.75,0-1.49,0-2.24,0a1.43,1.43,0,0,1-1.56-1.61c0-.53,0-1.07,0-1.6q0-17.76,0-35.53c0-3.72,0-3.73,3.61-3.75l65.3-.27c5.12,0,10.24-.13,15.36-.15,2.62,0,2.64,0,2.64,2.72q0,20.48,0,41Z" transform="translate(0 -0.29)"/><path class="cls-1" d="M516.17,18.82c14.38.06,28.22,2.65,41.22,9,13.69,6.69,24.27,16.48,30.09,30.87a76.13,76.13,0,0,1,4.58,18.57c.42,3,.15,3.23-3,3.43Q570.56,81.85,552,82.94c-3.3.2-6.6.44-9.9.58-2.5.12-2.46,0-3.12-2.48a76.64,76.64,0,0,0-2.67-8.87c-3.39-8.48-10-12.81-18.61-14.28a30.49,30.49,0,0,0-17.25,1.93c-6,2.52-10.22,11.08-8.4,16.67a14.4,14.4,0,0,0,6.68,8.23c5.49,3.25,11.56,4.91,17.64,6.54,11.53,3.09,23.22,5.63,34.47,9.68,9.89,3.57,19.21,8.15,27.51,14.73s13.44,14.92,16.41,24.94a69.68,69.68,0,0,1,2.75,26.88c-1.9,19.09-9.13,35.65-24.59,47.81-7,5.53-15.17,9.14-23.58,11.92-26.47,8.78-52.37,7.29-77.28-5.44-14.36-7.33-25.4-18.23-32.27-33a67.68,67.68,0,0,1-6.29-25.93c-.11-2.69,0-2.78,2.48-3l37-2.5c3.51-.24,7-.55,10.53-.77,2.91-.18,3-.15,3.31,2.86a42.57,42.57,0,0,0,3.5,12.9c3.36,7.44,8.18,13.58,16.19,16.34,8.33,2.86,16.72,3.28,25-.33,8.46-3.68,13.62-11.72,12.9-20.2-.56-6.54-4.16-11.3-9.36-14.94-4.59-3.21-9.81-5.13-15-7-9.45-3.39-19.19-5.77-28.77-8.72-9.09-2.79-18-6-26.19-11-15.35-9.27-22.92-23.21-24.81-40.71A57.87,57.87,0,0,1,442,63.05a51.92,51.92,0,0,1,16.45-25c9.91-8.57,21.57-13.6,34.2-16.58A100.74,100.74,0,0,1,516.17,18.82Z" transform="translate(0 -0.29)"/><path class="cls-1" d="M806.82,227.9a4.27,4.27,0,0,1-2.56.35l-51.52.26c-.54,0-1.08,0-1.6,0-1.85.24-2.69-.7-3.13-2.4-1.14-4.32-2.36-8.63-3.56-12.94q-2.21-7.85-4.43-15.69c-.73-2.54-.76-2.59-3.19-2.59q-29.45,0-58.88.07c-2.37,0-2.39.05-3.11,2.69q-3.87,14.19-7.72,28.39c-.7,2.59-.7,2.65-3.13,2.67-17.49.18-35,.39-52.48.21-.52,0-1-.1-1.76-.17.27-3,1.62-5.57,2.52-8.22q14-41.16,28.05-82.27c6-17.64,11.95-35.3,18-52.94q10-29.19,20-58.34c.81-2.37.94-2.51,3.37-2.51,18,0,36.06,0,54.09,0,2,0,2.8.7,3.4,2.52,3.05,9.3,6.23,18.56,9.37,27.84q9.62,28.46,19.23,56.91,8.29,24.51,16.61,49,11.28,33.3,22.57,66.59C807,227.43,806.89,227.55,806.82,227.9ZM707.66,78.77c-.9.23-1.1.6-1.17,1-.72,4.2-2,8.26-3.16,12.36-3.69,13.79-7.46,27.55-11.2,41.32-1.36,5-2.75,10.07-4.09,15.1-.54,2-.4,2.18,1.7,2.22,1.91,0,3.83,0,5.75,0,9.81,0,19.61,0,29.42-.06,2.33,0,2.44-.22,1.85-2.36q-2.94-10.62-5.87-21.24-4.53-16.47-9-32.95C710.47,89.07,709.07,84,707.66,78.77Z" transform="translate(0 -0.29)"/><path class="cls-1" d="M150.7,158.4c.07,1.11-.72,1.45-1.21,2q-9.24,9.55-18.5,19.07L80.14,231.77a7.28,7.28,0,0,0-.66.7c-.92,1.28-1.73,1.13-2.82.06-3.74-3.66-7.58-7.21-11.37-10.81L6.12,165.51c-1.63-1.54-3.25-3.08-4.86-4.64s-1.68-1.64-.08-3.2c4.67-4.54,9.37-9,14.05-13.56L75,86.62c.46-.44.93-.88,1.38-1.34a1.49,1.49,0,0,1,2.46,0c1,1,1.95,2,2.92,3q33.71,34.2,67.38,68.42C149.68,157.26,150.24,157.9,150.7,158.4Z" transform="translate(0 -0.29)"/><path class="cls-1" d="M159.63.84c.84.19,1.21.9,1.72,1.42q12.81,13,25.59,26l43.28,44a13.45,13.45,0,0,0,1.35,1.37c1.3,1,1,1.75-.06,2.81-3.93,3.91-7.76,7.92-11.62,11.9q-28.5,29.4-57,58.81l-.65.7c-2.24,2.26-2.23,2.25-4.44,0L88.7,77.61l-.46-.45c-1.6-1.66-1.62-1.68-.1-3.26,1.7-1.77,3.43-3.51,5.14-5.27q32.07-33.07,64.15-66.14C158.07,1.83,158.54.88,159.63.84Z" transform="translate(0 -0.29)"/><path class="cls-2" d="M322.85.29c.86,0,1.23.75,1.74,1.27q9.89,10,19.75,20.08L381.22,59c4.5,4.56,9,9.14,13.45,13.71,1.7,1.73,1.73,1.76,0,3.51q-14.15,14.58-28.32,29.14l-40.17,41.29c-.37.38-.73.78-1.12,1.15-1.6,1.55-1.73,1.59-3.32,0-3.54-3.55-7-7.14-10.55-10.72L252,76.76c-1.78-1.81-1.78-1.83.12-3.79l26.29-27.11q21.38-22,42.76-44.12C321.71,1.22,322.05.49,322.85.29Z" transform="translate(0 -0.29)"/><path class="cls-2" d="M242.25,232.71c-.89-.05-1.31-.73-1.82-1.25q-4.74-4.76-9.44-9.56l-60-61.21c-2-2-2-2-.07-4L238.72,86.6c.29-.31.59-.62.89-.92,2-2,2-2.06,4-.07q34.69,35.21,69.35,70.44a8.73,8.73,0,0,0,.68.68c1.35,1.08,1.08,2-.07,3.11-4.61,4.59-9.12,9.28-13.65,13.95q-27.75,28.56-55.5,57.13C243.74,231.59,243.24,232.48,242.25,232.71Z" transform="translate(0 -0.29)"/><path class="cls-2" d="M396.65,240.88c-.18.77-.87,1.14-1.39,1.66l-29.69,29.57-39.65,39.53c-1.95,1.94-2,1.93-3.93,0l-62.07-61c-2.51-2.46-5.07-4.88-7.58-7.35-1.66-1.62-1.66-1.66-.14-3.24q15.36-16.08,30.74-32.13l38.26-40c2-2.09,2-2.09,3.9-.15l66.73,67.65c1.34,1.36,2.7,2.72,4.05,4.08A1.9,1.9,0,0,1,396.65,240.88Z" transform="translate(0 -0.29)"/><path class="cls-1" d="M232.9,241.57c-.09.86-.75,1.29-1.26,1.81q-4.06,4.08-8.15,8.13L162.69,312c-.45.46-.88.94-1.34,1.37a1.06,1.06,0,0,1-1.67-.07c-.45-.46-.89-.92-1.35-1.37L99.67,254.29c-3.66-3.58-7.27-7.21-11-10.69-1.28-1.2-1.14-1.85,0-3q22.76-23.38,45.4-46.88,12-12.4,24-24.83c1.69-1.75,1.69-1.75,3.4,0q34.84,35.28,69.69,70.56C231.83,240,232.75,240.53,232.9,241.57Z" transform="translate(0 -0.29)"/><path class="cls-2" d="M405,83.5c.21,49.67.42,98.89.63,148.08-1.47.53-1.92-.54-2.53-1.16q-18.91-19.3-37.8-38.66Q350,176.1,334.57,160.48c-.22-.23-.46-.44-.67-.68-1.55-1.68-1.59-1.76,0-3.37,3.91-4.09,7.85-8.13,11.78-12.2l33.56-34.75q12.23-12.65,24.46-25.29A7.06,7.06,0,0,1,405,83.5Z" transform="translate(0 -0.29)"/><path class="cls-2" d="M841.5,290.61c3.87,1.81,6,5.21,7.86,8.85,1.51,2.93,3.08,5.84,4.61,8.77.26.48.53,1,1.09,1,.85,0,.87-.75,1.09-1.33l15.16-40.71a17.73,17.73,0,0,0,.66-1.8c.39-1.49,1.32-2,2.83-1.95,3.84.07,7.68.09,11.52,0a3,3,0,0,1,3.31,2.25c3.2,8.7,6.47,17.37,9.73,26,2.09,5.58,4.22,11.15,6.32,16.74.74,2,.6,2.23-1.47,2.26-3.62.07-7.25,0-10.87.09-1.69,0-2.45-.71-2.91-2.29-1.82-6.24-.94-5.36-7.64-5.42-2.66,0-5.32.4-8,0-1.7-.23-2.57.65-3,2.18-.34,1.23-.84,2.43-1.1,3.67-.32,1.58-1.29,2.05-2.75,2.06-9.06,0-18.12,0-27.19.11-1.66,0-2.46-.91-3.15-2.23-1.89-3.58-3.83-7.14-5.76-10.7-.66-1.21-1.3-2.45-2.07-3.6a5.59,5.59,0,0,0-3.9-2.54c-1.8-.27-2.29.1-2.31,2,0,3.73,0,7.46,0,11.2,0,5.89,0,5.89-5.92,5.91l-5.76,0c-3.1,0-3.11,0-3.13-3.26v-1.92q0-19.2-.08-38.39c0-.64,0-1.28,0-1.92-.07-1.53.72-2.12,2.16-2,.32,0,.64,0,1,0,7.25,0,14.5-.06,21.76-.06a33.06,33.06,0,0,1,9.49,1.11,10.58,10.58,0,0,1,7.14,6.37c3.1,7.52-.19,16.06-7.66,18.31C842.16,289.55,841.71,289.64,841.5,290.61Zm-18.08-12.52c0,1.06,0,2.13,0,3.2,0,.69.22,1.41,1,1.42,3.29.05,6.65.6,9.8-.74a4.18,4.18,0,0,0,2.55-4.4,4.23,4.23,0,0,0-3-3.77,14.33,14.33,0,0,0-5.36-.67C822.65,273.16,823.46,272.71,823.42,278.09ZM881,276.93c-.7,0-.88.32-1,.61-1.43,4.57-2.83,9.15-4.26,13.72-.39,1.22.24,1.54,1.27,1.54h7c1.59,0,1.7-.73,1.21-2.06-.74-2-1.29-4.06-1.91-6.09C882.54,282,881.75,279.43,881,276.93Z" transform="translate(0 -0.29)"/><path class="cls-2" d="M788.55,284.11c3.09,0,6.19.05,9.28,0,1.61,0,2.26.53,2.24,2.24-.06,5.33,0,10.66.06,16a3.25,3.25,0,0,1-1.44,3c-9.6,6.79-20.18,8.37-31.37,5.48-7-1.82-11.61-6.64-13.76-13.52a30.41,30.41,0,0,1,.42-20.38,20,20,0,0,1,15.69-13.12,45.45,45.45,0,0,1,16.24-.08c6.5,1.07,10.62,5,13,11,.48,1.21.19,1.84-1,2.07-3.56.65-7.13,1.27-10.69,1.94a2.17,2.17,0,0,1-2.6-1.2c-2.07-3.43-5.29-4.5-9.09-3.84-4,.7-6.76,2.92-7.87,7a25.35,25.35,0,0,0,0,13.58c1.16,4.29,4.07,6.64,8.37,7.27a14.92,14.92,0,0,0,9.51-2.11A3.59,3.59,0,0,0,787,295c-.33-.9-1.06-.94-1.81-.94-1.81,0-3.62,0-5.43,0-2.3-.06-2.38-.13-2.42-2.32,0-1.7,0-3.41,0-5.11,0-2.39,0-2.42,2.57-2.45,2.88,0,5.76,0,8.64,0Z" transform="translate(0 -0.29)"/><path class="cls-2" d="M550.5,281.16c0,4.37,0,8.75,0,13.12a18.58,18.58,0,0,1-5.7,13.46,16.35,16.35,0,0,1-8.67,4.47,40.54,40.54,0,0,1-18.07-.56c-6-1.54-9.62-5.73-11.48-11.42a27.17,27.17,0,0,1-1.3-8.82c.09-7.78,0-15.56,0-23.35,0-3.23,0-3.24,3.14-3.27,2.78,0,5.55,0,8.32,0,3,0,3,0,3,3q.11,12.94.19,25.9c0,7.82,7.7,9.64,12.25,7.17,2.93-1.6,3.74-4.23,3.76-7.24,0-6.08,0-12.16,0-18.23,0-2.78,0-5.55-.05-8.32,0-1.55.41-2.45,2.11-2.44q5.28,0,10.56,0c1.54,0,2,.8,2,2.23,0,4.8,0,9.6,0,14.39Z" transform="translate(0 -0.29)"/><path class="cls-2" d="M673.59,297.56c.15-3.86,2.89-7.44,7-10.24,1.29-.88,3.46-1,3.76-2.6.24-1.36-1.44-2.47-2.14-3.78-3.87-7.15-.64-14.83,7.23-16.8a27.91,27.91,0,0,1,13.62,0c4,1,6.93,3.36,8,7.45,1.11,4.27-.51,7.76-3.7,10.57a42.39,42.39,0,0,1-4.1,3.06c-1,.69-1.34,1.28-.25,2.2,1.47,1.24,2.87,2.55,4.3,3.83,1,.9,1.8.94,2.51-.41,1.25-2.39,1.29-2.37,4-1.78,1.56.34,3.13.67,4.68,1.06,2.52.64,2.56.71,1.6,3.27a28.69,28.69,0,0,1-1.78,4.1c-.77,1.33-.42,2.17.74,2.93,1.34.88,2.64,1.81,4,2.66,1,.66,1.24,1.32.37,2.3-1.63,1.83-3.24,3.68-4.79,5.58a1.8,1.8,0,0,1-2.76.36c-1.34-.88-2.77-1.63-4-2.58a3.14,3.14,0,0,0-3.8-.11c-7.61,4-15.66,4.64-23.93,2.69C677.74,309.87,673.57,304.76,673.59,297.56Zm27.89,3.63-9.59-8.69a1.44,1.44,0,0,0-1.45-.4c-3.15.94-4.88,5.69-3,8.51a6.68,6.68,0,0,0,5.24,3.18C695.78,304.06,698.48,303,701.48,301.19Zm-.55-26.64c0-.53,0-.63,0-.74-.15-1.87-2.15-3.36-4.44-3.31s-4.39,1.78-4.44,3.77c0,1.63,2.62,5.51,3.8,5.55a1.65,1.65,0,0,0,.31,0C697.75,279.5,700.89,275.79,700.93,274.55Z" transform="translate(0 -0.29)"/><path class="cls-2" d="M963.8,294.39a37.52,37.52,0,0,0,3.83-.28c1.62-.27,2.27.45,2.74,1.91,1.47,4.56,5,6.6,9.59,5.68,2.43-.48,4.22-2.06,4.52-4s-1.06-3.85-3.42-4.88c-2.85-1.24-5.94-1.7-8.9-2.57a33.61,33.61,0,0,1-8.54-3.55,12.31,12.31,0,0,1-.75-20.54c.08-.07.18-.12.26-.18,6.65-4.7,21.09-5,27.9-.63,3.49,2.24,4.92,5.76,6,9.52.3,1.06-.28,1.65-1.31,1.72-3.61.28-7.23.52-10.85.76-1,.06-1.48-.53-1.88-1.4-1.8-4-4.32-5.27-8.35-4.45a3.82,3.82,0,0,0-3.26,3.05c-.12,1.33.83,2.57,2.69,3.13,2.45.73,5,1.28,7.44,1.92a51,51,0,0,1,8.5,2.8c5.13,2.35,8.51,6.07,8.74,11.95.23,6.07-2.48,10.66-7.53,13.93a18.92,18.92,0,0,1-8.44,2.81,40.41,40.41,0,0,1-14.93-.87c-7.38-2-10.28-7.37-11.76-13.43-.34-1.38.36-2,1.67-2.06l6.07-.38Z" transform="translate(0 -0.29)"/><path class="cls-2" d="M929.64,311.45a32.75,32.75,0,0,1-9.8-1.18,16.39,16.39,0,0,1-11.19-13.19c-.15-1.3.15-2.07,1.58-2.16,3.41-.19,6.82-.37,10.22-.66,1.57-.14,2,.83,2.41,2,1.73,4.55,4.75,6.34,9.39,5.64,2.51-.39,4.23-1.84,4.55-3.84.36-2.23-.75-4.08-3.41-5.11a52.54,52.54,0,0,0-5.82-1.71,43.91,43.91,0,0,1-10.5-3.78c-4.34-2.43-6.83-6-6.75-11.12s2.55-8.67,6.84-11.14a20.1,20.1,0,0,1,6.66-2.16,34.23,34.23,0,0,1,15.84.73c5.46,1.62,8.39,5.51,9.7,10.88.32,1.33.12,2.06-1.37,2.16-3.4.21-6.81.42-10.21.69-1.3.11-1.83-.49-2.34-1.62-1.68-3.76-4.75-5.17-8.57-4.15a3.67,3.67,0,0,0-3,3c-.24,1.36.6,2.51,2.59,3.16,2.33.75,4.73,1.27,7.11,1.87a55.54,55.54,0,0,1,8.81,2.85c4.69,2.07,8,5.32,8.72,10.58.79,6.14-1.49,11.1-6.5,14.72-3.58,2.59-7.73,3.47-12.07,3.6C931.56,311.47,930.6,311.45,929.64,311.45Z" transform="translate(0 -0.29)"/><path class="cls-2" d="M560.12,288.36q0-10.39,0-20.78c0-3,0-3.06,3-3.07q15,0,30.06-.07c3,0,3,.07,3,3,0,1.59,0,3.19,0,4.79,0,2.33-.17,2.5-2.6,2.52-4.9.05-9.8,0-14.71,0-.74,0-1.49,0-2.23,0-1.31,0-2,.53-1.88,1.93.52,6.88-1.46,6.14,6,6.16,3.2,0,6.4-.05,9.6,0,2.44,0,2.56.16,2.63,2.49,0,1.49,0,3,0,4.47,0,2.62-.13,2.75-2.67,2.78-4.16.05-8.32,0-12.47.05-3,0-3,.05-3,3,0,4.59,0,9.17,0,13.75,0,2.2-.21,2.42-2.33,2.45-3.31.06-6.61.06-9.91,0-2.52,0-2.55,0-2.55-2.81,0-6.93,0-13.86,0-20.79Z" transform="translate(0 -0.29)"/><path class="cls-2" d="M622.77,264.32c6.51,0,13,0,19.53,0,2.65,0,2.66,0,2.7,2.67,0,2.35,0,4.7,0,7,.05,1.53-.61,2.09-2.1,2.06-3.09,0-6.19,0-9.28,0-3.39,0-3.41,0-3.41,3.3,0,9.71.07,19.42.09,29.13,0,3.2,0,3.21-3.13,3.24-2.78,0-5.55,0-8.33,0-3.22,0-3.24,0-3.26-3.15q-.06-12.64-.07-25.29c0-1.6,0-3.2,0-4.8,0-2.17-.19-2.36-2.4-2.39-3.31-.05-6.62,0-9.92,0-2.63,0-2.65-.05-2.68-2.69,0-2.24-.06-4.49,0-6.73s.14-2.31,2.4-2.32c6-.05,12,0,17.93-.05h1.92Z" transform="translate(0 -0.29)"/><path class="cls-2" d="M476.67,264.83c6.51,0,13,0,19.52,0,2.49,0,2.48.05,2.48,2.48s.06,4.7.05,7c0,2-.14,2.22-2.16,2.26-3,.06-6,0-9,0-3.37,0-3.39,0-3.38,3.32q0,14.56,0,29.13c0,3.17,0,3.18-3.17,3.21-3,0-6,.07-9,0-2.58,0-2.65-.11-2.66-2.78q0-14.41-.07-28.81c0-.54,0-1.07,0-1.6-.08-2.33-.14-2.42-2.66-2.45-3.09,0-6.19,0-9.28,0s-3,0-3-3c0-2.13,0-4.27,0-6.4s.11-2.34,2.37-2.36c5.23-.06,10.46-.05,15.69-.06h4.16Z" transform="translate(0 -0.29)"/></svg>